<?xml version="1.0" standalone="no"?>
<!DOCTYPE svg PUBLIC "-//W3C//DTD SVG 20010904//EN"
 "http://www.w3.org/TR/2001/REC-SVG-20010904/DTD/svg10.dtd">
<svg version="1.0" xmlns="http://www.w3.org/2000/svg"
 width="235.000000pt" height="235.000000pt" viewBox="0 0 235.000000 235.000000"
 preserveAspectRatio="xMidYMid meet">
<metadata>
Created by potrace 1.14, written by Peter Selinger 2001-2017
</metadata>
<g transform="translate(0.000000,235.000000) scale(0.100000,-0.100000)"
fill="#000000" stroke="none">
<path d="M899 1668 c-3 -145 0 -700 4 -705 3 -3 31 -5 62 -5 47 -1 55 -4 50
-17 -4 -13 -2 -13 9 2 16 21 102 25 90 5 -6 -10 -5 -10 7 -1 9 7 65 12 163 12
82 0 151 2 153 5 4 3 5 387 3 694 l0 42 -270 0 -270 0 -1 -32z"/>
<path d="M1070 946 c0 -2 8 -10 18 -17 15 -13 16 -12 3 4 -13 16 -21 21 -21
13z"/>
<path d="M1190 946 c0 -2 8 -10 18 -17 15 -13 16 -12 3 4 -13 16 -21 21 -21
13z"/>
<path d="M1315 941 c-3 -5 -2 -12 3 -15 5 -3 9 1 9 9 0 17 -3 19 -12 6z"/>
<path d="M956 932 c-3 -5 1 -9 9 -9 8 0 12 4 9 9 -3 4 -7 8 -9 8 -2 0 -6 -4
-9 -8z"/>
<path d="M45 870 c-3 -5 -2 -10 4 -10 5 0 13 5 16 10 3 6 2 10 -4 10 -5 0 -13
-4 -16 -10z"/>
<path d="M88 819 c-2 -48 0 -57 13 -56 12 1 15 7 10 22 -8 25 -7 67 2 81 3 6
0 11 -8 11 -9 0 -14 -17 -17 -58z"/>
<path d="M136 868 c3 -4 9 -8 15 -8 5 0 9 4 9 8 0 5 -7 9 -15 9 -8 0 -12 -4
-9 -9z"/>
<path d="M184 831 c1 -25 -2 -52 -7 -58 -7 -9 -4 -13 9 -13 16 0 19 8 19 58 0
39 -4 59 -12 59 -8 0 -11 -16 -9 -46z"/>
<path d="M231 858 c10 -18 9 -24 -3 -31 -20 -13 -1 -54 27 -61 30 -8 82 -7 70
2 -12 8 -13 81 -2 99 5 7 1 11 -10 10 -15 -1 -17 -9 -15 -54 4 -48 2 -53 -17
-53 -26 0 -47 45 -31 65 8 9 6 17 -5 29 -23 22 -28 20 -14 -6z"/>
<path d="M367 873 c-2 -5 -5 -28 -6 -53 -2 -25 -5 -48 -8 -52 -2 -5 5 -8 17
-8 14 0 19 4 14 12 -4 7 -6 34 -5 60 2 44 -2 59 -12 41z"/>
<path d="M402 864 c12 -14 14 -24 7 -37 -6 -10 -6 -17 -1 -17 10 0 22 23 22
40 0 5 -10 15 -22 21 -22 11 -22 11 -6 -7z"/>
<path d="M458 841 c6 -68 10 -76 38 -79 28 -2 67 24 58 39 -3 5 -1 9 4 9 6 0
8 9 5 20 -8 29 -19 24 -17 -7 2 -34 -12 -53 -37 -53 -23 0 -35 25 -34 71 1 20
-3 36 -9 36 -7 0 -10 -15 -8 -36z"/>
<path d="M540 870 c0 -5 5 -10 11 -10 5 0 7 5 4 10 -3 6 -8 10 -11 10 -2 0 -4
-4 -4 -10z"/>
<path d="M580 870 c0 -5 4 -10 9 -10 6 0 13 5 16 10 3 6 -1 10 -9 10 -9 0 -16
-4 -16 -10z"/>
<path d="M626 836 c0 -23 -3 -49 -8 -58 -6 -13 -4 -16 10 -15 15 1 18 10 17
57 0 32 -5 57 -10 57 -6 0 -10 -19 -9 -41z"/>
<path d="M666 868 c3 -4 9 -8 15 -8 5 0 9 4 9 8 0 5 -7 9 -15 9 -8 0 -12 -4
-9 -9z"/>
<path d="M715 833 c1 -27 -1 -53 -6 -58 -5 -7 -1 -11 10 -12 13 -1 17 5 15 23
-3 31 13 31 38 -1 17 -22 77 -38 65 -17 -2 4 3 25 13 47 15 35 17 37 22 17 4
-15 2 -20 -5 -16 -7 3 -4 -1 6 -9 9 -8 17 -22 17 -31 0 -9 6 -16 14 -16 11 0
10 11 -7 55 -11 30 -23 55 -27 55 -4 0 -17 -22 -28 -50 -12 -27 -25 -50 -31
-50 -14 0 -42 43 -33 50 12 8 9 43 -4 47 -7 2 -10 -6 -7 -22 4 -20 1 -25 -16
-25 -17 0 -21 6 -21 30 0 17 -4 30 -9 30 -5 0 -7 -21 -6 -47z"/>
<path d="M1017 860 c-3 -13 -1 -18 5 -14 7 5 9 -2 4 -20 -5 -19 -2 -28 9 -32
8 -4 15 -12 15 -20 0 -8 10 -14 23 -14 18 1 19 2 6 10 -9 5 -22 30 -29 55 -15
52 -25 64 -33 35z"/>
<path d="M1112 860 c-12 -12 -22 -30 -22 -40 0 -29 36 -60 68 -59 l27 1 -29 8
c-16 5 -33 15 -37 22 -14 22 -10 57 8 67 10 5 15 12 12 15 -3 3 -15 -3 -27
-14z"/>
<path d="M1170 875 c0 -2 7 -8 15 -15 12 -10 15 -10 15 2 0 8 -7 15 -15 15 -8
0 -15 -1 -15 -2z"/>
<path d="M1240 847 c3 -18 3 -44 -1 -59 -5 -21 -4 -28 7 -28 8 0 14 10 14 25
0 32 9 32 36 -2 12 -16 25 -25 29 -21 4 4 0 14 -9 23 -18 18 -21 41 -6 50 12
8 2 32 -16 39 -10 4 -13 2 -7 -7 13 -21 12 -38 -4 -44 -19 -8 -34 16 -23 37 6
12 4 16 -10 17 -15 1 -16 -3 -10 -30z"/>
<path d="M1405 873 c11 -3 26 -10 33 -15 18 -15 15 -69 -5 -85 -16 -13 -16
-13 3 -4 12 6 23 8 26 6 2 -2 5 13 6 34 2 31 -2 43 -20 55 -12 9 -32 15 -43
15 -20 -1 -20 -1 0 -6z"/>
<path d="M1549 873 c-1 -5 -1 -28 0 -52 1 -26 -4 -48 -11 -53 -9 -5 -6 -8 8
-8 19 0 21 5 19 48 -1 26 2 53 8 60 7 8 5 12 -7 12 -9 0 -17 -3 -17 -7z"/>
<path d="M1649 832 c1 -23 -2 -48 -7 -55 -9 -10 -4 -13 21 -15 23 -1 28 1 17
7 -19 12 -19 89 0 101 9 5 5 8 -11 7 -22 -2 -24 -6 -20 -45z"/>
<path d="M1700 870 c0 -5 5 -10 11 -10 5 0 7 5 4 10 -3 6 -8 10 -11 10 -2 0
-4 -4 -4 -10z"/>
<path d="M1755 833 c1 -27 -2 -53 -6 -58 -5 -7 2 -11 19 -12 15 -1 21 1 15 4
-8 3 -13 25 -13 59 0 30 -4 54 -8 54 -5 0 -8 -21 -7 -47z"/>
<path d="M1910 865 c7 -9 15 -13 17 -11 7 7 -7 26 -19 26 -6 0 -6 -6 2 -15z"/>
<path d="M2068 866 c5 -6 7 -32 6 -58 -2 -43 0 -48 19 -48 16 0 18 3 9 12 -7
7 -12 33 -12 58 0 35 -4 47 -15 47 -9 0 -11 -5 -7 -11z"/>
<path d="M2145 854 c18 -17 25 -30 20 -42 -19 -47 -19 -47 3 -29 31 28 15 79
-29 90 -17 5 -16 2 6 -19z"/>
<path d="M1356 848 c-15 -23 -11 -82 4 -73 5 3 11 1 15 -5 3 -5 14 -10 23 -10
16 1 16 1 0 11 -28 16 -39 44 -28 73 12 32 5 33 -14 4z"/>
<path d="M1597 849 c4 -12 0 -25 -8 -30 -8 -5 -9 -9 -3 -9 18 0 37 28 30 45
-8 23 -25 18 -19 -6z"/>
<path d="M1807 854 c4 -10 0 -22 -10 -29 -14 -10 -13 -14 9 -38 14 -15 30 -27
36 -27 6 0 1 11 -11 24 -19 20 -21 28 -11 45 11 22 6 41 -10 41 -5 0 -7 -7 -3
-16z"/>
<path d="M1867 857 c-6 -16 16 -47 34 -47 5 0 9 -9 9 -20 0 -24 -36 -28 -43
-5 -4 11 -4 10 -3 -2 2 -24 45 -24 60 0 9 15 6 22 -15 40 -15 12 -28 29 -31
36 -3 12 -6 12 -11 -2z"/>
<path d="M1970 824 c-23 -52 -24 -64 -10 -64 6 0 9 3 9 8 -4 24 3 38 20 39 19
2 36 -21 27 -36 -3 -4 4 -7 15 -8 18 -2 18 -1 -1 37 -11 22 -20 46 -20 55 0
30 -19 14 -40 -31z m26 0 c-4 -9 -9 -15 -11 -12 -3 3 -3 13 1 22 4 9 9 15 11
12 3 -3 3 -13 -1 -22z"/>
<path d="M2240 861 c0 -6 5 -13 10 -16 6 -3 10 -14 10 -23 -1 -15 -2 -15 -15
2 -8 11 -15 17 -15 14 0 -3 -7 -22 -15 -42 -13 -31 -13 -36 -1 -36 9 0 12 7 9
20 -3 11 -1 20 3 21 5 0 17 2 27 4 15 3 22 -11 18 -37 0 -5 6 -8 15 -8 9 0 14
6 11 13 -31 78 -40 97 -48 97 -5 0 -9 -4 -9 -9z"/>
<path d="M987 795 c-9 -19 -13 -35 -9 -35 9 0 36 59 30 65 -2 3 -12 -11 -21
-30z"/>
<path d="M1686 818 c3 -4 9 -8 15 -8 5 0 9 4 9 8 0 5 -7 9 -15 9 -8 0 -12 -4
-9 -9z"/>
<path d="M1178 801 c8 -4 13 -11 13 -15 -1 -3 -1 -11 -1 -18 0 -19 14 1 15 22
1 14 -5 20 -19 20 -15 0 -17 -3 -8 -9z"/>
<path d="M1710 775 c-8 -9 -8 -15 -2 -15 12 0 26 19 19 26 -2 2 -10 -2 -17
-11z"/>
</g>
</svg>
